<svg width="31" height="32" viewBox="0 0 31 32" fill="none" xmlns="http://www.w3.org/2000/svg">
<path fill-rule="evenodd" clip-rule="evenodd" d="M20.25 20.8147C18.7649 20.2809 17.1472 20 15.4999 20C12.9409 20 10.4533 20.6779 8.42309 21.9287C6.75251 22.9579 5.46838 24.3276 4.69683 25.8862C4.43251 26.4202 4.78034 27.0272 5.36285 27.1526L7.08729 27.5235C11.4192 28.4555 15.8673 28.6593 20.25 28.1352V27H18.0833C16.4265 27 15.0833 25.6569 15.0833 24C15.0833 22.3431 16.4265 21 18.0833 21L20.25 21V20.8147Z" fill="white"/>
<path d="M23.25 18.6667L23.25 29.3333" stroke="white" stroke-width="2.5" stroke-linecap="round"/>
<path d="M28.4167 24L18.0834 24" stroke="white" stroke-width="2.5" stroke-linecap="round"/>
<ellipse cx="15.5" cy="10.6667" rx="6.45833" ry="6.66667" fill="white"/>
</svg>
