<svg width="16" height="16" viewBox="0 0 16 16" fill="none" xmlns="http://www.w3.org/2000/svg">
<path fill-rule="evenodd" clip-rule="evenodd" d="M4.51669 0.796125C1.84343 2.09112 0 4.83028 0 8C0 8.19689 0.00711304 8.39213 0.0210962 8.58546L6.16287 6.93977L4.51669 0.796125ZM7.41484 0.0210745L9.19006 6.64628L9.20172 6.68966C9.25172 6.87537 9.32224 7.13732 9.35318 7.37748C9.39219 7.68019 9.40136 8.15897 9.11967 8.64688C8.83797 9.13479 8.41875 9.36624 8.1371 9.48381C7.91364 9.57709 7.65153 9.64699 7.4657 9.69655L7.42229 9.70814L0.796256 11.4836C2.0913 14.1567 4.83039 16 8 16C12.4183 16 16 12.4183 16 8C16 3.58172 12.4183 0 8 0C7.80321 0 7.60807 0.00710568 7.41484 0.0210745Z" fill="white"/>
</svg>
